<svg xmlns="http://www.w3.org/2000/svg" xml:space="preserve" viewBox="0 0 512 512"><path d="M283 1h229.94v512c-28.032 0-56.018 0-84.808-.254.22-1.032 1.146-2.023 2.286-2.556 11.482-5.373 16.688-14.538 16.591-27.015-.052-6.664-.315-13.348.078-19.99.387-6.555-1.684-12.142-4.866-17.651-.752-1.303-.73-3.788.027-5.101 3.176-5.513 5.182-11.11 4.844-17.661-.394-7.645-.077-15.325-.096-22.99-.033-13.333-13.486-26.758-26.835-26.779-9.83-.015-19.663-.113-29.49.06-3.16.056-3.87-1.368-4.797-4.103-2.679-7.915-4.769-16.399-9.227-23.273-13.947-21.508-33.79-33.217-60.059-32.717-9.762.186-19.531.03-29.588.03v-6.015c0-30.158.005-60.316-.004-90.474-.002-6.319-3.215-9.49-9.576-9.51-3.419-.01-6.838 0-10.034 0V61.26h91.29c-.532 1.183-.859 2.1-1.332 2.935-15.012 26.432-29.762 53.019-45.23 79.18-4.672 7.902-6.313 15.96-4.924 24.441 2.537 15.496 9.326 28.945 20.968 39.941 20.394 19.264 44.174 23.556 70.439 16.23 18.095-5.048 31.505-16.81 40.213-33.067 8.104-15.127 13.115-31.154 2.84-47.74-2.65-4.279-5.122-8.669-7.62-13.039-7.812-13.663-15.627-27.324-23.381-41.019-5.186-9.159-10.272-18.374-15.715-28.123 7.797 0 14.9.004 22.004-.001 7.02-.005 10.064-3.041 10.062-10.025-.002-6.935-3.076-9.972-10.118-9.973q-72.23-.002-144.459 0h-5.202V21.665c.341-.323.46-.534.58-.536 3.497-.056 6.995-.081 10.492-.133 5.186-.076 8.164-3.667 8.847-8.86.622-4.735-2.295-7.615-4.14-11.137M86 513H1.022V1c76.332 0 152.686 0 229.846.26.36.735-.02 1.304-.544 1.67-4.722 3.295-4.12 8.393-2.875 12.517 1.168 3.868 4.869 6.202 9.692 5.625 3.202-.382 6.487-.072 9.618-.072v20h-5.611c-48.323 0-96.646-.005-144.97.006C90.18 41.008 87 44.508 87 50.992c0 6.585 3.054 9.978 9.08 10 7.431.03 14.863.008 23.044.008-4.824 8.477-9.319 16.356-13.796 24.245-10.991 19.365-21.541 39.001-33.171 57.975-4.764 7.772-6.27 15.66-5.001 23.95 3.623 23.67 16.57 41.156 37.44 52.649 11.675 6.43 24.452 7.792 37.62 7.239 15.277-.642 28.523-6.255 40.05-15.919 13.384-11.22 21.837-25.61 24.388-42.897.864-5.854.907-12.699-1.338-17.953-4.179-9.783-10.296-18.74-15.634-28.025-7.771-13.514-15.624-26.981-23.328-40.533-3.821-6.723-7.388-13.59-11.134-20.513h91.533V207c-3.53 0-6.825-.007-10.12.002-6.289.016-9.628 3.305-9.63 9.535-.007 30.327-.003 60.654-.003 90.98V313c-11.16 0-21.65.273-32.121-.075-10.949-.364-21.172 2.366-30.493 7.51-19.39 10.702-32.328 26.592-36.375 48.883-.484 2.666-1.679 3.803-4.582 3.747-9.161-.177-18.354.376-27.487-.165-14.903-.883-30.091 13.952-29.027 29.275.496 7.131.376 14.34-.003 21.485-.331 6.24 1.973 11.418 4.755 16.69.758 1.436.628 3.945-.117 5.458-2.542 5.161-4.989 10.127-4.647 16.224.41 7.308.093 14.658.098 21.99.009 11.925 5.484 20.468 15.948 26.024 1.201.638 2.043 1.953 3.051 2.954"/><path fill="#B578D3" d="M86.469 513c-1.477-1.001-2.319-2.316-3.52-2.954-10.464-5.556-15.94-14.099-15.948-26.024-.005-7.332.312-14.682-.098-21.99-.342-6.097 2.105-11.063 4.647-16.224.745-1.513.875-4.022.117-5.458-2.782-5.272-5.086-10.45-4.755-16.69.38-7.145.499-14.354.003-21.485-1.064-15.323 14.124-30.158 29.027-29.275 9.133.541 18.326-.012 27.487.165 2.903.056 4.098-1.081 4.582-3.747 4.047-22.29 16.986-38.18 36.375-48.882 9.32-5.145 19.544-7.875 30.493-7.511 10.47.348 20.961.075 32.121.075v-5.482c0-30.327-.004-60.654.003-90.981.002-6.23 3.341-9.52 9.63-9.535 3.295-.009 6.59-.002 10.12-.002V61.218H155.22c3.746 6.923 7.313 13.79 11.134 20.513 7.704 13.552 15.557 27.019 23.328 40.533 5.338 9.285 11.455 18.242 15.634 28.025 2.245 5.254 2.202 12.099 1.338 17.953-2.55 17.288-11.004 31.676-24.388 42.897-11.527 9.664-24.773 15.277-40.05 15.919-13.168.553-25.945-.81-37.62-7.24-20.87-11.492-33.817-28.978-37.44-52.648-1.269-8.29.237-16.178 5-23.95 11.63-18.974 22.18-38.61 33.172-57.975 4.477-7.889 8.972-15.768 13.796-24.245-8.18 0-15.613.021-23.045-.007-6.025-.023-9.08-3.416-9.079-10 0-6.485 3.18-9.985 9.179-9.987 48.323-.01 96.646-.006 144.969-.006h5.61V21c-3.13 0-6.415-.31-9.617.072-4.823.577-8.524-1.757-9.692-5.625-1.245-4.124-1.847-9.222 2.875-12.518a2.43 2.43 0 0 0 1.013-1.67C248.021 1 265.042 1 282.531 1c2.314 3.522 5.231 6.402 4.609 11.136-.683 5.194-3.66 8.785-8.847 8.861-3.497.052-6.995.077-10.491.133-.122.002-.24.213-.58.536V41h5.201q72.23-.001 144.459.001c7.042 0 10.116 3.038 10.118 9.973.002 6.984-3.042 10.02-10.062 10.025-7.104.005-14.207 0-22.004 0 5.443 9.75 10.529 18.965 15.715 28.124 7.754 13.695 15.569 27.356 23.38 41.019 2.499 4.37 4.97 8.76 7.62 13.038 10.276 16.587 5.265 32.614-2.839 47.741-8.708 16.256-22.118 28.02-40.213 33.067-26.265 7.326-50.045 3.034-70.44-16.23-11.64-10.996-18.43-24.445-20.967-39.94-1.389-8.482.252-16.54 4.924-24.441 15.468-26.162 30.218-52.75 45.23-79.18.473-.835.8-1.753 1.331-2.936h-91.29v145.74c3.197 0 6.616-.01 10.035 0 6.361.02 9.574 3.191 9.576 9.51.009 30.158.004 60.316.004 90.474V313c10.057 0 19.826.156 29.588-.03 26.27-.5 46.112 11.21 60.059 32.717 4.458 6.874 6.548 15.358 9.227 23.273.926 2.735 1.638 4.16 4.796 4.104 9.828-.174 19.66-.076 29.49-.06 13.35.02 26.803 13.445 26.836 26.779.02 7.664-.298 15.344.096 22.989.338 6.551-1.668 12.148-4.844 17.66-.757 1.314-.78 3.799-.027 5.102 3.182 5.509 5.253 11.096 4.866 17.652-.393 6.641-.13 13.325-.078 19.989.097 12.477-5.109 21.642-16.591 27.015-1.14.533-2.066 1.524-2.755 2.556C314.313 513 200.625 513 86.47 513m59.494-60.04c-15.803.014-31.606-.017-47.408.063-7.582.039-11.42 3.836-11.532 11.3-.09 5.987-.126 11.98.018 17.964.16 6.644 4 10.62 10.631 10.656 16.466.092 32.933-.042 50.324.015 19.644-.034 39.29-.067 59.877-.02l207.353.059c.5 0 1 .01 1.499-.022 6.1-.386 10.01-4.061 10.202-10.115.212-6.655.23-13.329-.018-19.982-.217-5.8-4.107-9.446-9.94-9.835-1.825-.121-3.663-.041-5.495-.042-68.118-.03-136.237-.06-204.44-1.012.029-6.3.057-12.6 1.006-18.951 2.332-.013 4.664-.036 6.995-.036q98.685-.002 197.372-.003c11.744 0 14.589-2.893 14.593-14.815.001-3.83.005-7.661-.001-11.492-.016-10.47-3.226-13.689-13.708-13.69-58.628-.005-117.257-.009-175.885.004-10.159.003-20.317.089-31.4.036-19.645.033-39.29.066-59.877.016-15.966-.017-31.932-.098-47.898-.024-7.238.033-11.071 3.914-11.205 11.111-.102 5.487-.05 10.977-.019 16.465.05 8.747 3.67 12.352 12.477 12.383 15.799.055 31.598.07 47.48 1.022-.027 6.297-.055 12.594-1.001 18.945m206.588-105.006c-9.763-9.793-21.597-14.876-35.386-14.912-40.124-.102-80.25-.075-120.373-.011-11.546.018-21.933 3.714-30.934 10.948-9.203 7.397-15.16 16.818-17.67 28.72h217.578c-1.913-9.616-6.3-17.45-13.215-24.745M111.504 147h67.608L137.01 72.568 94.898 147zm236.441-22.66-13.033 22.494h84.109L377.03 72.607c-9.802 17.253-19.384 34.122-29.085 51.733M153.5 166.998H88.763c1.42 17.571 21.307 41.873 51.939 39.918 21.794-1.392 45.301-22.448 44.13-39.918zm178.06 10.837c10.791 21.924 33.202 33.058 56.264 27.954 19.223-4.254 37.047-22.562 37.217-38.47H328.03c1.188 3.627 2.203 6.725 3.53 10.516M247 301.475c0 11.527 0 11.527 11.611 11.525.833 0 1.68-.098 2.497.016 4.48.622 6.044-1.062 5.994-5.767-.231-21.991-.102-43.986-.102-65.98 0-14.408-.003-14.19-14.363-14.388-4.9-.068-5.745 1.822-5.714 6.124.165 22.492.077 44.986.077 68.47"/><path fill="#CCF" d="M206.93 393.143c10.159-.048 20.317-.134 30.476-.137 58.628-.013 117.257-.009 175.885-.003 10.482 0 13.692 3.22 13.708 13.689.006 3.83.002 7.662 0 11.492-.003 11.922-2.848 14.815-14.592 14.815-65.79.002-131.581 0-197.372.003-2.331 0-4.663.023-7.488-.412-.534-13.447-.576-26.447-.617-39.447M207.12 452.91l204.354.091c1.832 0 3.67-.08 5.494.042 5.834.39 9.724 4.034 9.941 9.835.249 6.653.23 13.327.018 19.982-.192 6.054-4.102 9.729-10.202 10.115-.498.032-1 .022-1.499.022-69.118-.019-138.235-.039-207.806-.557-.402-13.509-.352-26.519-.3-39.53"/><path fill="#FFF" d="M352.799 348.206c6.666 7.042 11.054 14.877 12.967 24.492H148.19c2.509-11.9 8.466-21.322 17.669-28.719 9-7.234 19.388-10.93 30.934-10.948 40.124-.064 80.249-.091 120.373.011 13.789.036 25.623 5.119 35.634 15.164M207.077 452.45c-.009 13.471-.06 26.481-.129 39.95-19.663.49-39.308.524-59.433.05-.532-13.52-.583-26.532-.633-39.544.027-6.297.055-12.594.073-19.825.033-13.936.075-26.938.117-39.94 19.645-.033 39.29-.066 59.396-.049.503 13.05.545 26.05.619 39.524.004 6.773-.024 13.073-.01 19.834"/><path d="M111.006 147H94.898l42.112-74.432L179.112 147zM348.004 123.968c9.642-17.24 19.224-34.108 29.026-51.361l41.99 74.227h-84.108c4.457-7.693 8.745-15.094 13.092-22.866"/><path fill="#CCCBFF" d="M154 166.998h30.831c1.172 17.47-22.335 38.526-44.13 39.918-30.631 1.955-50.518-22.347-51.938-39.918zM331.403 177.49a927 927 0 0 1-3.374-10.171h97.012c-.17 15.908-17.994 34.216-37.217 38.47-23.062 5.104-45.473-6.03-56.42-28.3"/><path fill="#CCF" d="M146.6 393.1c.43 13.043.388 26.045.314 39.52-15.832.442-31.631.428-47.43.373-8.808-.03-12.427-3.636-12.477-12.383-.032-5.488-.083-10.978.019-16.465.134-7.197 3.967-11.078 11.205-11.111 15.966-.074 31.932.007 48.37.066M146.422 452.933c.51 12.985.561 25.997.631 39.467-16.448.501-32.915.635-49.38.543-6.633-.036-10.472-4.012-10.632-10.656-.144-5.985-.108-11.977-.018-17.964.113-7.464 3.95-11.261 11.532-11.3 15.802-.08 31.605-.049 47.867-.09M247 300.98c0-22.99.088-45.483-.077-67.975-.031-4.302.815-6.192 5.714-6.124 14.36.197 14.363-.02 14.363 14.389 0 21.993-.129 43.988.102 65.979.05 4.705-1.514 6.389-5.994 5.767-.817-.114-1.664-.016-2.497-.016-11.611.002-11.611.002-11.611-12.02"/></svg>