<svg xmlns="http://www.w3.org/2000/svg" xml:space="preserve" viewBox="0 0 496 496"><path d="M174.174 211.51c-2.42-3.956-1.68-6.5 2.786-6.906 12.137-1.106 24.279-1.24 36.267 1.359 4.911 1.064 9.097 3.828 13.684 7.672.612-10.195 7.599-9.768 14.233-9.62 12.646.284 25.284-.231 37.955.552 6.516.403 13.261-.617 19.918-.55 1.99.02 4.013.111 5.959.49 4.519.88 5.78 3.886 2.472 6.948-3.776 3.494-4.334 7.58-4.294 12.207.082 9.497-.034 18.997.068 28.495.025 2.324-1.02 5.53 2.342 6.348 3.557.864 7.498 1.339 10.16-2.075 1.929-2.475 3.296-5.383 4.98-8.056 1.163-1.846 2.4-3.877 5.06-3.131 2.695.756 2.547 3.11 2.597 5.321.352 15.383-1.044 16.828-16.278 16.796-9.166-.019-18.331-.004-27.496-.03-2.164-.006-4.536.183-5.522-2.377-.925-2.399.37-4.196 2.081-5.688 2.718-2.368 3.695-5.314 3.645-8.887-.15-10.662-.117-21.327-.182-31.991-.003-.468-.266-.934-.47-1.6-1.594 1.389-.641 3.062-.809 4.492-.238 2.033-.282 4.241-2.724 4.773-2.443.531-3.45-1.487-4.502-3.212-1.385-2.273-2.644-4.643-4.235-6.763-1.324-1.766-3.193-3.163-5.599-2.446-2.577.767-2.063 3.153-2.072 5.063-.05 10.498.04 20.997-.043 31.495-.029 3.703.916 6.857 3.675 9.443 1.49 1.397 2.718 3.083 1.897 5.298-.86 2.323-2.957 2.408-5.004 2.41-6.666.004-13.331-.006-19.997-.014-1.909-.002-3.767-.275-4.611-2.27-.907-2.144-.03-3.95 1.61-5.338 3.222-2.727 4.048-6.253 4.01-10.293-.101-10.33-.014-20.663-.043-30.995-.005-1.782.37-3.873-1.851-4.727-1.94-.746-3.822.037-4.993 1.45-3.6 4.344-7.122 8.9-7.447 14.815-.506 9.188-4.277 14.477-13.04 17.33-4.944 1.61-10.04 2.193-15.25 2.066-1.888-.046-4.307-.772-5.4 1.502-1.117 2.32-.015 4.555 1.195 6.601 1.49 2.517 5.722 4.087 3.398 7.926-2.039 3.367-5.765 1.792-8.763 1.908-5.324.207-10.663.04-15.995.02-1.92-.006-3.742-.332-4.5-2.405-.712-1.95-.065-3.74 1.47-4.939 3.882-3.03 4.387-7.12 4.313-11.638-.146-8.83-.186-17.666.006-26.494.09-4.172-1.114-7.494-4.66-10.335m23.007 19.883c.012 1.833.046 3.666.03 5.5-.03 3.125 1.682 4.52 4.622 4.704a11.105 11.105 0 0 0 11.813-10.413c.3-4.623-.778-8.961-3.152-12.9-2.076-3.444-5.062-5.677-9.251-5.997-2.666-.203-4.094.763-4.056 3.635.064 4.832.002 9.665-.006 15.471"/></svg>