<svg xmlns="http://www.w3.org/2000/svg" fill="none" stroke="#FACC15" stroke-width="2" viewBox="0 0 24 24">
  <circle cx="12" cy="12" r="3" />
  <path stroke-linecap="round" stroke-linejoin="round" d="M19.4 15a1.65 1.65 0 0 0 .33 1.82l.06.06a2 2 0 1 1-2.83 2.83l-.06-.06a1.65 1.65 0 0 0-1.82-.33 1.65 1.65 0 0 0-1 1.51V22a2 2 0 1 1-4 0v-.09a1.65 1.65 0 0 0-1-1.51 1.65 1.65 0 0 0-1.82.33l-.06.06a2 2 0 1 1-2.83-2.83l.06-.06a1.65 1.65 0 0 0 .33-1.82A1.65 1.65 0 0 0 4 14H3a2 2 0 1 1 0-4h1a1.65 1.65 0 0 0 1.51-1 1.65 1.65 0 0 0-.33-1.82l-.06-.06a2 2 0 1 1 2.83-2.83l.06.06A1.65 1.65 0 0 0 9 4.6 1.65 1.65 0 0 0 10.51 4H12a2 2 0 1 1 4 0v.09a1.65 1.65 0 0 0 1 1.51c.46.19.99.11 1.38-.22l.06-.06a2 2 0 1 1 2.83 2.83l-.06.06c-.33.39-.41.92-.22 1.38.19.46.61.8 1.09.9z"/>
</svg>